<?xml version="1.0" encoding="utf-8"?>
<!-- Generator: Adobe Illustrator 24.1.2, SVG Export Plug-In . SVG Version: 6.00 Build 0)  -->
<svg version="1.1" xmlns="http://www.w3.org/2000/svg" xmlns:xlink="http://www.w3.org/1999/xlink" x="0px" y="0px"
	viewBox="0 0 100 100" style="enable-background:new 0 0 100 100;" xml:space="preserve" id="BMFSign" fill="#4F200D">
<path d="M16.14,31.01c2.09,0,3.98,0.26,5.68,0.78c1.7,0.52,3.2,1.24,4.44,2.22c1.24,0.98,2.22,2.22,2.94,3.72
	c0.72,1.5,1.04,3.2,1.04,5.09c0,1.83-0.39,3.33-1.17,4.57c-0.78,1.24-1.83,2.22-3.2,2.94c1.63,0.85,2.94,1.96,3.85,3.33
	c0.91,1.37,1.37,3.07,1.37,5.15c0,1.96-0.33,3.65-1.04,5.15c-0.72,1.5-1.7,2.74-3,3.78c-1.3,1.04-2.81,1.83-4.57,2.35
	c-1.76,0.52-3.65,0.78-5.74,0.78H2.5v-39.8L16.14,31.01z M15.81,46.74c1.24,0,2.28-0.33,3.07-0.98c0.78-0.65,1.17-1.5,1.17-2.61
	c0-1.11-0.39-1.96-1.17-2.61c-0.78-0.65-1.76-0.98-3-0.98h-3.33v7.05h3.33L15.81,46.74z M16.4,62.4c1.37,0,2.48-0.39,3.26-1.11
	c0.78-0.72,1.17-1.7,1.17-2.94s-0.39-2.22-1.17-2.94c-0.78-0.72-1.89-1.04-3.26-1.04h-3.85v7.96h3.85V62.4z"/>
<path d="M41.65,70.88h-9.72V29.12l20.55,19.51l20.23-19.51v41.76h-9.72V51.37l-10.64,9.85l-10.7-9.85V70.88z"/>
<path d="M85.49,70.88h-9.92v-39.8H97.5l-1.37,9.66H85.49v7.83h10.57v9.66H85.49V70.88z"/>
</svg>
